<svg width="14" height="14" viewBox="0 0 14 14" fill="none" xmlns="http://www.w3.org/2000/svg">
<g clip-path="url(#clip0_48_15163)">
<path d="M5.30185 5.25033C5.43899 4.86047 5.70969 4.53172 6.06599 4.32232C6.42229 4.11292 6.84121 4.03637 7.24854 4.10624C7.65587 4.17611 8.02533 4.38788 8.29148 4.70405C8.55763 5.02022 8.7033 5.42038 8.70268 5.83366C8.70268 7.00033 6.95268 7.58366 6.95268 7.58366M6.99935 9.91699H7.00518M12.8327 7.00033C12.8327 10.222 10.221 12.8337 6.99935 12.8337C3.77769 12.8337 1.16602 10.222 1.16602 7.00033C1.16602 3.77866 3.77769 1.16699 6.99935 1.16699C10.221 1.16699 12.8327 3.77866 12.8327 7.00033Z" stroke="#4A5E73" stroke-width="1.1" stroke-linecap="round" stroke-linejoin="round"/>
</g>
<defs>
<clipPath id="clip0_48_15163">
<rect width="14" height="14" fill="white"/>
</clipPath>
</defs>
</svg>
